<svg width="130" height="25" viewBox="0 0 130 25" fill="none" xmlns="http://www.w3.org/2000/svg">
<g clip-path="url(#clip0_566_312)">
<path d="M13.8182 22.181C13.6727 22.181 13.5273 22.181 13.3818 22.181L2.61818 22.1068C1.23636 22.1068 0.0727273 20.9199 0.0727273 19.4362L0 2.67062C0 1.18694 1.16364 0 2.54545 0L13.3091 0.074184C13.9636 0.074184 14.6182 0.37092 15.1273 0.890208C15.6364 1.4095 15.8545 2.07715 15.8545 2.81899L16 19.5104C16 20.8457 15.0545 21.9585 13.8182 22.181ZM2.4 1.8546C2.03636 1.92878 1.74545 2.22552 1.74545 2.67062L1.81818 19.4362C1.81818 19.8813 2.18182 20.2522 2.61818 20.2522L13.4545 20.3264C13.6727 20.3264 13.8909 20.2522 14.0364 20.1039C14.1818 19.9555 14.2545 19.7329 14.2545 19.5104L14.1818 2.74481C14.1818 2.52226 14.1091 2.2997 13.9636 2.15134C13.8182 2.00297 13.6 1.92878 13.3818 1.92878H2.61818C2.54545 1.8546 2.47273 1.8546 2.4 1.8546Z" fill="#2E3138"/>
<path d="M8.36352 24.7774C7.63625 25.1483 6.69079 25.1483 6.03625 24.629C5.45443 24.1097 5.09079 23.2937 5.09079 22.4777L5.01807 5.63792C5.01807 4.15424 6.25443 3.63495 7.56352 2.9673L12.5817 0.37086C13.309 -6.0156e-05 14.2544 -6.01336e-05 14.909 0.519228C14.9817 0.593412 15.1272 0.667596 15.1999 0.74178C15.709 1.26107 15.9272 1.92872 15.9272 2.67056L15.9999 19.5103C15.9999 20.8456 16.1453 21.0682 14.8362 21.7358" fill="#2E3138"/>
<path d="M8.14568 11.7954C8.00022 11.8695 7.78204 11.8695 7.56386 11.7212C7.4184 11.5728 7.27295 11.4244 7.27295 11.2019V6.97339C7.27295 6.60248 7.56386 6.45411 7.92749 6.30574L9.16386 5.63808C9.38204 5.5639 9.60022 5.5639 9.74568 5.71227L9.8184 5.78645C9.96386 5.93482 10.0366 6.08319 10.0366 6.23156V10.46C10.0366 10.831 10.1093 10.831 9.74568 11.0535" fill="#FED100"/>
</g>
<path d="M30.7398 14.418C31.1878 14.6327 31.5425 14.9407 31.8038 15.342C32.0745 15.7433 32.2098 16.2053 32.2098 16.728C32.2098 17.512 31.9345 18.17 31.3838 18.702C30.8332 19.234 30.1612 19.5 29.3678 19.5H25.1398V9.7H29.0598C29.8252 9.7 30.4738 9.95667 31.0058 10.47C31.5378 10.9833 31.8038 11.618 31.8038 12.374C31.8038 13.242 31.4492 13.9233 30.7398 14.418ZM29.0598 10.918H26.4418V13.914H29.0598C29.4705 13.914 29.8158 13.7693 30.0958 13.48C30.3758 13.1907 30.5158 12.836 30.5158 12.416C30.5158 12.0053 30.3712 11.6553 30.0818 11.366C29.8018 11.0673 29.4612 10.918 29.0598 10.918ZM29.3678 18.282C29.8065 18.282 30.1752 18.128 30.4738 17.82C30.7725 17.512 30.9218 17.134 30.9218 16.686C30.9218 16.2473 30.7678 15.874 30.4598 15.566C30.1612 15.258 29.7972 15.104 29.3678 15.104H26.4418V18.282H29.3678ZM39.5761 18.618C38.8575 19.3273 37.9848 19.682 36.9581 19.682C35.9315 19.682 35.0588 19.3273 34.3401 18.618C33.6308 17.9087 33.2761 17.036 33.2761 16C33.2761 14.964 33.6308 14.0913 34.3401 13.382C35.0588 12.6727 35.9315 12.318 36.9581 12.318C37.9848 12.318 38.8575 12.6727 39.5761 13.382C40.2948 14.0913 40.6541 14.964 40.6541 16C40.6541 17.036 40.2948 17.9087 39.5761 18.618ZM36.9581 18.492C37.6581 18.492 38.2461 18.254 38.7221 17.778C39.1981 17.302 39.4361 16.7093 39.4361 16C39.4361 15.2907 39.1981 14.698 38.7221 14.222C38.2461 13.746 37.6581 13.508 36.9581 13.508C36.2675 13.508 35.6841 13.746 35.2081 14.222C34.7321 14.698 34.4941 15.2907 34.4941 16C34.4941 16.7093 34.7321 17.302 35.2081 17.778C35.6841 18.254 36.2675 18.492 36.9581 18.492ZM43.238 11.45V10.386H47.018V11.45H43.238ZM47.172 12.5H48.152V19.5H46.948V14.586L43.07 19.5H42.09V12.5H43.294V17.414L47.172 12.5ZM55.214 12.5V13.676H52.834V19.5H51.616V13.676H49.222V12.5H55.214ZM61.3634 12.5H62.3434V19.5H61.1394V14.586L57.2614 19.5H56.2814V12.5H57.4854V17.414L61.3634 12.5ZM72.3594 15.902C73.0781 16.2007 73.4374 16.742 73.4374 17.526C73.4374 18.1047 73.2414 18.5807 72.8494 18.954C72.4668 19.318 71.9161 19.5 71.1974 19.5H67.6974V12.5H70.9174C71.6174 12.5 72.1588 12.6773 72.5414 13.032C72.9241 13.3773 73.1154 13.8347 73.1154 14.404C73.1154 15.076 72.8634 15.5753 72.3594 15.902ZM70.8614 13.592H68.8874V15.426H70.8614C71.5708 15.426 71.9254 15.1133 71.9254 14.488C71.9254 13.8907 71.5708 13.592 70.8614 13.592ZM71.1274 18.394C71.4821 18.394 71.7528 18.31 71.9394 18.142C72.1354 17.974 72.2334 17.736 72.2334 17.428C72.2334 17.1387 72.1354 16.9147 71.9394 16.756C71.7528 16.588 71.4821 16.504 71.1274 16.504H68.8874V18.394H71.1274ZM84.0481 12.5H85.2661V19.5H84.0481V18.296C83.4415 19.22 82.5595 19.682 81.4021 19.682C80.4221 19.682 79.5868 19.3273 78.8961 18.618C78.2055 17.8993 77.8601 17.0267 77.8601 16C77.8601 14.9733 78.2055 14.1053 78.8961 13.396C79.5868 12.6773 80.4221 12.318 81.4021 12.318C82.5595 12.318 83.4415 12.78 84.0481 13.704V12.5ZM81.5561 18.506C82.2655 18.506 82.8581 18.268 83.3341 17.792C83.8101 17.3067 84.0481 16.7093 84.0481 16C84.0481 15.2907 83.8101 14.698 83.3341 14.222C82.8581 13.7367 82.2655 13.494 81.5561 13.494C80.8561 13.494 80.2681 13.7367 79.7921 14.222C79.3161 14.698 79.0781 15.2907 79.0781 16C79.0781 16.7093 79.3161 17.3067 79.7921 17.792C80.2681 18.268 80.8561 18.506 81.5561 18.506ZM93.0335 19.5H91.5215L88.3295 16.182V19.5H87.1115V12.5H88.3295V15.594L91.3535 12.5H92.9215L89.5755 15.888L93.0335 19.5ZM100.088 19.5H98.5762L95.3842 16.182V19.5H94.1662V12.5H95.3842V15.594L98.4082 12.5H99.9762L96.6302 15.888L100.088 19.5ZM106.374 12.5H107.592V19.5H106.374V18.296C105.768 19.22 104.886 19.682 103.728 19.682C102.748 19.682 101.913 19.3273 101.222 18.618C100.532 17.8993 100.186 17.0267 100.186 16C100.186 14.9733 100.532 14.1053 101.222 13.396C101.913 12.6773 102.748 12.318 103.728 12.318C104.886 12.318 105.768 12.78 106.374 13.704V12.5ZM103.882 18.506C104.592 18.506 105.184 18.268 105.66 17.792C106.136 17.3067 106.374 16.7093 106.374 16C106.374 15.2907 106.136 14.698 105.66 14.222C105.184 13.7367 104.592 13.494 103.882 13.494C103.182 13.494 102.594 13.7367 102.118 14.222C101.642 14.698 101.404 15.2907 101.404 16C101.404 16.7093 101.642 17.3067 102.118 17.792C102.594 18.268 103.182 18.506 103.882 18.506ZM114.324 12.5H115.626L112.77 19.934C112.471 20.7273 112.051 21.3293 111.51 21.74C110.968 22.16 110.352 22.3467 109.662 22.3V21.166C110.52 21.2313 111.15 20.7647 111.552 19.766L111.664 19.514L108.626 12.5H109.914L112.308 17.988L114.324 12.5ZM121.487 12.5H122.705V19.5H121.487V16.574H117.861V19.5H116.643V12.5H117.861V15.412H121.487V12.5ZM129.767 12.5V13.676H127.387V19.5H126.169V13.676H123.775V12.5H129.767Z" fill="#2E3138"/>
<defs>
<clipPath id="clip0_566_312">
<rect width="16" height="25" fill="white"/>
</clipPath>
</defs>
</svg>
