<svg width="171" height="24" viewBox="0 0 171 24" fill="none" xmlns="http://www.w3.org/2000/svg">
<path d="M10.7377 6.87989V5.25189H14.0456V17.7508C14.0456 19.7639 13.3718 21.3131 12.0241 22.3984C10.6939 23.4663 9.08371 24.0002 7.19346 24.0002C4.21806 24.0002 2.14404 22.9324 0.97138 20.7967L3.85926 19.1424C4.50685 20.3678 5.65325 20.9805 7.29847 20.9805C8.36612 20.9805 9.20623 20.7004 9.81881 20.1403C10.4314 19.5801 10.7377 18.7836 10.7377 17.7508V16.3328C9.74005 17.6632 8.33986 18.3284 6.53712 18.3284C4.68188 18.3284 3.12417 17.6807 1.864 16.3853C0.621333 15.0549 0 13.4619 0 11.6064C0 9.75078 0.630084 8.16654 1.89025 6.85364C3.15042 5.54073 4.69938 4.88428 6.53712 4.88428C8.33986 4.88428 9.74005 5.54948 10.7377 6.87989ZM9.68754 14.2059C10.3876 13.5232 10.7377 12.6567 10.7377 11.6064C10.7377 10.556 10.3876 9.70702 9.68754 9.05932C9.00495 8.37661 8.12984 8.03525 7.06219 8.03525C6.01205 8.03525 5.12818 8.37661 4.41059 9.05932C3.728 9.70702 3.3867 10.556 3.3867 11.6064C3.3867 12.6567 3.728 13.5232 4.41059 14.2059C5.11068 14.8711 5.99455 15.2037 7.06219 15.2037C8.12984 15.2037 9.00495 14.8711 9.68754 14.2059Z" fill="#2E3138"/>
<path d="M23.8901 18.7486C21.9123 18.7486 20.2583 18.0834 18.9282 16.753C17.6155 15.4225 16.9591 13.777 16.9591 11.8164C16.9591 9.85582 17.6155 8.21031 18.9282 6.87989C20.2583 5.54948 21.9123 4.88428 23.8901 4.88428C25.1677 4.88428 26.3316 5.19062 27.3818 5.80331C28.4319 6.416 29.2283 7.23876 29.7709 8.27158L26.8567 9.97835C26.5942 9.43569 26.1916 9.0068 25.6491 8.69171C25.124 8.37661 24.5289 8.21906 23.8638 8.21906C22.8487 8.21906 22.0086 8.56041 21.3435 9.24313C20.6784 9.90833 20.3458 10.7661 20.3458 11.8164C20.3458 12.8317 20.6784 13.6895 21.3435 14.3897C22.0086 15.0549 22.8487 15.3875 23.8638 15.3875C24.5464 15.3875 25.1502 15.2387 25.6753 14.9411C26.2179 14.626 26.6204 14.1972 26.883 13.6545L29.8234 15.335C29.2458 16.3853 28.4232 17.2168 27.3555 17.8295C26.3054 18.4422 25.1502 18.7486 23.8901 18.7486Z" fill="#2E3138"/>
<path d="M45.121 16.7527C43.7908 18.0831 42.1456 18.7483 40.1853 18.7483C38.2251 18.7483 36.5798 18.0831 35.2497 16.7527C33.9195 15.4223 33.2544 13.7768 33.2544 11.8162C33.2544 9.87306 33.9195 8.2363 35.2497 6.90589C36.5973 5.55797 38.2426 4.88401 40.1853 4.88401C42.1281 4.88401 43.7733 5.55797 45.121 6.90589C46.4687 8.25381 47.1425 9.89056 47.1425 11.8162C47.1425 13.7593 46.4687 15.4048 45.121 16.7527ZM37.6387 14.4157C38.3213 15.0984 39.1702 15.4398 40.1853 15.4398C41.2005 15.4398 42.0493 15.0984 42.7319 14.4157C43.4145 13.733 43.7558 12.8665 43.7558 11.8162C43.7558 10.7658 43.4145 9.89932 42.7319 9.21661C42.0493 8.53389 41.2005 8.19254 40.1853 8.19254C39.1702 8.19254 38.3213 8.53389 37.6387 9.21661C36.9736 9.91682 36.6411 10.7833 36.6411 11.8162C36.6411 12.849 36.9736 13.7155 37.6387 14.4157Z" fill="#2E3138"/>
<path d="M45.121 16.7527C43.7908 18.0831 42.1456 18.7483 40.1853 18.7483C38.2251 18.7483 36.5798 18.0831 35.2497 16.7527C33.9195 15.4223 33.2544 13.7768 33.2544 11.8162C33.2544 9.87306 33.9195 8.2363 35.2497 6.90589C36.5973 5.55797 38.2426 4.88401 40.1853 4.88401C42.1281 4.88401 43.7733 5.55797 45.121 6.90589C46.4687 8.25381 47.1425 9.89056 47.1425 11.8162C47.1425 13.7593 46.4687 15.4048 45.121 16.7527ZM37.6387 14.4157C38.3213 15.0984 39.1702 15.4398 40.1853 15.4398C41.2005 15.4398 42.0493 15.0984 42.7319 14.4157C43.4145 13.733 43.7558 12.8665 43.7558 11.8162C43.7558 10.7658 43.4145 9.89932 42.7319 9.21661C42.0493 8.53389 41.2005 8.19254 40.1853 8.19254C39.1702 8.19254 38.3213 8.53389 37.6387 9.21661C36.9736 9.91682 36.6411 10.7833 36.6411 11.8162C36.6411 12.849 36.9736 13.7155 37.6387 14.4157Z" fill="url(#paint0_linear_132_609)"/>
<path d="M57.6898 4.88401C59.4576 4.88401 60.9628 5.55797 62.2054 6.90589C63.4656 8.25381 64.0957 9.89056 64.0957 11.8162C64.0957 13.7768 63.4656 15.4223 62.2054 16.7527C60.9803 18.0831 59.4751 18.7483 57.6898 18.7483C55.8521 18.7483 54.4344 18.1094 53.4368 16.8315V23.6323H50.0501V5.25163H53.4368V6.80086C54.4344 5.52296 55.8521 4.88401 57.6898 4.88401ZM54.4607 14.4945C55.1433 15.1772 56.0096 15.5186 57.0598 15.5186C58.1099 15.5186 58.9763 15.1772 59.6589 14.4945C60.3589 13.7943 60.709 12.9015 60.709 11.8162C60.709 10.7308 60.3589 9.8468 59.6589 9.16409C58.9763 8.46387 58.1099 8.11376 57.0598 8.11376C56.0096 8.11376 55.1433 8.46387 54.4607 9.16409C53.7781 9.8468 53.4368 10.7308 53.4368 11.8162C53.4368 12.9015 53.7781 13.7943 54.4607 14.4945Z" fill="#2E3138"/>
<path d="M57.6898 4.88401C59.4576 4.88401 60.9628 5.55797 62.2054 6.90589C63.4656 8.25381 64.0957 9.89056 64.0957 11.8162C64.0957 13.7768 63.4656 15.4223 62.2054 16.7527C60.9803 18.0831 59.4751 18.7483 57.6898 18.7483C55.8521 18.7483 54.4344 18.1094 53.4368 16.8315V23.6323H50.0501V5.25163H53.4368V6.80086C54.4344 5.52296 55.8521 4.88401 57.6898 4.88401ZM54.4607 14.4945C55.1433 15.1772 56.0096 15.5186 57.0598 15.5186C58.1099 15.5186 58.9763 15.1772 59.6589 14.4945C60.3589 13.7943 60.709 12.9015 60.709 11.8162C60.709 10.7308 60.3589 9.8468 59.6589 9.16409C58.9763 8.46387 58.1099 8.11376 57.0598 8.11376C56.0096 8.11376 55.1433 8.46387 54.4607 9.16409C53.7781 9.8468 53.4368 10.7308 53.4368 11.8162C53.4368 12.9015 53.7781 13.7943 54.4607 14.4945Z" fill="url(#paint1_linear_132_609)"/>
<path d="M79.7684 13.2078H69.8709C70.3084 14.8533 71.5423 15.6761 73.5726 15.6761C74.8678 15.6761 75.8479 15.2385 76.513 14.3632L79.2434 15.9387C77.9482 17.8118 76.0404 18.7483 73.5201 18.7483C71.3498 18.7483 69.6083 18.0919 68.2956 16.7789C66.983 15.466 66.3266 13.8118 66.3266 11.8162C66.3266 9.85555 66.9742 8.21004 68.2694 6.87963C69.5471 5.54922 71.2098 4.88401 73.2576 4.88401C75.2003 4.88401 76.7843 5.54922 78.0094 6.87963C79.2696 8.21004 79.8997 9.85555 79.8997 11.8162C79.8997 12.1838 79.8559 12.6477 79.7684 13.2078ZM69.8183 10.582H76.513C76.3205 9.72426 75.9267 9.06781 75.3316 8.61267C74.754 8.15753 74.0627 7.92996 73.2576 7.92996C72.3474 7.92996 71.5948 8.16628 70.9998 8.63893C70.4047 9.09407 70.0109 9.74177 69.8183 10.582Z" fill="#2E3138"/>
<path d="M79.7684 13.2078H69.8709C70.3084 14.8533 71.5423 15.6761 73.5726 15.6761C74.8678 15.6761 75.8479 15.2385 76.513 14.3632L79.2434 15.9387C77.9482 17.8118 76.0404 18.7483 73.5201 18.7483C71.3498 18.7483 69.6083 18.0919 68.2956 16.7789C66.983 15.466 66.3266 13.8118 66.3266 11.8162C66.3266 9.85555 66.9742 8.21004 68.2694 6.87963C69.5471 5.54922 71.2098 4.88401 73.2576 4.88401C75.2003 4.88401 76.7843 5.54922 78.0094 6.87963C79.2696 8.21004 79.8997 9.85555 79.8997 11.8162C79.8997 12.1838 79.8559 12.6477 79.7684 13.2078ZM69.8183 10.582H76.513C76.3205 9.72426 75.9267 9.06781 75.3316 8.61267C74.754 8.15753 74.0627 7.92996 73.2576 7.92996C72.3474 7.92996 71.5948 8.16628 70.9998 8.63893C70.4047 9.09407 70.0109 9.74177 69.8183 10.582Z" fill="url(#paint2_linear_132_609)"/>
<path d="M90.0875 4.88401C91.5402 4.88401 92.7216 5.36541 93.6317 6.32821C94.5768 7.30851 95.0494 8.63892 95.0494 10.3194V18.3807H91.6627V10.7396C91.6627 9.88181 91.4264 9.21661 90.9539 8.74396C90.4988 8.27131 89.8687 8.03499 89.0636 8.03499C88.171 8.03499 87.4621 8.31507 86.9371 8.87525C86.4295 9.41792 86.1757 10.2232 86.1757 11.291V18.3807H82.789V5.25163H86.1757V6.72208C86.9808 5.4967 88.2847 4.88401 90.0875 4.88401Z" fill="#2E3138"/>
<path d="M90.0875 4.88401C91.5402 4.88401 92.7216 5.36541 93.6317 6.32821C94.5768 7.30851 95.0494 8.63892 95.0494 10.3194V18.3807H91.6627V10.7396C91.6627 9.88181 91.4264 9.21661 90.9539 8.74396C90.4988 8.27131 89.8687 8.03499 89.0636 8.03499C88.171 8.03499 87.4621 8.31507 86.9371 8.87525C86.4295 9.41792 86.1757 10.2232 86.1757 11.291V18.3807H82.789V5.25163H86.1757V6.72208C86.9808 5.4967 88.2847 4.88401 90.0875 4.88401Z" fill="url(#paint3_linear_132_609)"/>
<path d="M108.521 6.87963V5.25163H111.829V17.7505C111.829 19.7636 111.155 21.3128 109.808 22.3982C108.478 23.466 106.867 23.9999 104.977 23.9999C102.002 23.9999 99.9277 22.9321 98.755 20.7964L101.643 19.1422C102.291 20.3676 103.437 20.9802 105.082 20.9802C106.15 20.9802 106.99 20.7002 107.602 20.14C108.215 19.5798 108.521 18.7833 108.521 17.7505V16.3326C107.524 17.663 106.124 18.3282 104.321 18.3282C102.466 18.3282 100.908 17.6805 99.6477 16.3851C98.405 15.0547 97.7837 13.4617 97.7837 11.6061C97.7837 9.75052 98.4137 8.16628 99.6739 6.85337C100.934 5.54047 102.483 4.88401 104.321 4.88401C106.124 4.88401 107.524 5.54922 108.521 6.87963ZM107.471 14.2056C108.171 13.5229 108.521 12.6564 108.521 11.6061C108.521 10.5558 108.171 9.70676 107.471 9.05905C106.789 8.37634 105.913 8.03499 104.846 8.03499C103.796 8.03499 102.912 8.37634 102.194 9.05905C101.512 9.70676 101.17 10.5558 101.17 11.6061C101.17 12.6564 101.512 13.5229 102.194 14.2056C102.894 14.8709 103.778 15.2035 104.846 15.2035C105.913 15.2035 106.789 14.8709 107.471 14.2056Z" fill="#2E3138"/>
<path d="M108.521 6.87963V5.25163H111.829V17.7505C111.829 19.7636 111.155 21.3128 109.808 22.3982C108.478 23.466 106.867 23.9999 104.977 23.9999C102.002 23.9999 99.9277 22.9321 98.755 20.7964L101.643 19.1422C102.291 20.3676 103.437 20.9802 105.082 20.9802C106.15 20.9802 106.99 20.7002 107.602 20.14C108.215 19.5798 108.521 18.7833 108.521 17.7505V16.3326C107.524 17.663 106.124 18.3282 104.321 18.3282C102.466 18.3282 100.908 17.6805 99.6477 16.3851C98.405 15.0547 97.7837 13.4617 97.7837 11.6061C97.7837 9.75052 98.4137 8.16628 99.6739 6.85337C100.934 5.54047 102.483 4.88401 104.321 4.88401C106.124 4.88401 107.524 5.54922 108.521 6.87963ZM107.471 14.2056C108.171 13.5229 108.521 12.6564 108.521 11.6061C108.521 10.5558 108.171 9.70676 107.471 9.05905C106.789 8.37634 105.913 8.03499 104.846 8.03499C103.796 8.03499 102.912 8.37634 102.194 9.05905C101.512 9.70676 101.17 10.5558 101.17 11.6061C101.17 12.6564 101.512 13.5229 102.194 14.2056C102.894 14.8709 103.778 15.2035 104.846 15.2035C105.913 15.2035 106.789 14.8709 107.471 14.2056Z" fill="url(#paint4_linear_132_609)"/>
<path d="M118.812 5.25163V7.50982C119.11 6.68707 119.617 6.06563 120.335 5.6455C121.052 5.20786 121.875 4.98904 122.803 4.98904V8.77022C121.77 8.63017 120.842 8.84024 120.02 9.40041C119.215 9.94308 118.812 10.8446 118.812 12.105V18.3807H115.425V5.25163H118.812Z" fill="#2E3138"/>
<path d="M118.812 5.25163V7.50982C119.11 6.68707 119.617 6.06563 120.335 5.6455C121.052 5.20786 121.875 4.98904 122.803 4.98904V8.77022C121.77 8.63017 120.842 8.84024 120.02 9.40041C119.215 9.94308 118.812 10.8446 118.812 12.105V18.3807H115.425V5.25163H118.812Z" fill="url(#paint5_linear_132_609)"/>
<path d="M134.798 6.80086V5.25163H138.184V18.3807H134.798V16.8315C133.782 18.1094 132.356 18.7483 130.518 18.7483C128.768 18.7483 127.263 18.0831 126.003 16.7527C124.76 15.4048 124.139 13.7593 124.139 11.8162C124.139 9.89056 124.76 8.25381 126.003 6.90589C127.263 5.55797 128.768 4.88401 130.518 4.88401C132.356 4.88401 133.782 5.52296 134.798 6.80086ZM128.549 14.4945C129.232 15.1772 130.098 15.5186 131.148 15.5186C132.199 15.5186 133.065 15.1772 133.747 14.4945C134.448 13.7943 134.798 12.9015 134.798 11.8162C134.798 10.7308 134.448 9.8468 133.747 9.16409C133.065 8.46387 132.199 8.11376 131.148 8.11376C130.098 8.11376 129.232 8.46387 128.549 9.16409C127.867 9.8468 127.525 10.7308 127.525 11.8162C127.525 12.9015 127.867 13.7943 128.549 14.4945Z" fill="#2E3138"/>
<path d="M134.798 6.80086V5.25163H138.184V18.3807H134.798V16.8315C133.782 18.1094 132.356 18.7483 130.518 18.7483C128.768 18.7483 127.263 18.0831 126.003 16.7527C124.76 15.4048 124.139 13.7593 124.139 11.8162C124.139 9.89056 124.76 8.25381 126.003 6.90589C127.263 5.55797 128.768 4.88401 130.518 4.88401C132.356 4.88401 133.782 5.52296 134.798 6.80086ZM128.549 14.4945C129.232 15.1772 130.098 15.5186 131.148 15.5186C132.199 15.5186 133.065 15.1772 133.747 14.4945C134.448 13.7943 134.798 12.9015 134.798 11.8162C134.798 10.7308 134.448 9.8468 133.747 9.16409C133.065 8.46387 132.199 8.11376 131.148 8.11376C130.098 8.11376 129.232 8.46387 128.549 9.16409C127.867 9.8468 127.525 10.7308 127.525 11.8162C127.525 12.9015 127.867 13.7943 128.549 14.4945Z" fill="url(#paint6_linear_132_609)"/>
<path d="M149.42 4.88401C151.188 4.88401 152.693 5.55797 153.936 6.90589C155.196 8.25381 155.826 9.89056 155.826 11.8162C155.826 13.7768 155.196 15.4223 153.936 16.7527C152.711 18.0831 151.205 18.7483 149.42 18.7483C147.582 18.7483 146.165 18.1094 145.167 16.8315V23.6323H141.78V5.25163H145.167V6.80086C146.165 5.52296 147.582 4.88401 149.42 4.88401ZM146.191 14.4945C146.874 15.1772 147.74 15.5186 148.79 15.5186C149.84 15.5186 150.707 15.1772 151.389 14.4945C152.089 13.7943 152.439 12.9015 152.439 11.8162C152.439 10.7308 152.089 9.8468 151.389 9.16409C150.707 8.46387 149.84 8.11376 148.79 8.11376C147.74 8.11376 146.874 8.46387 146.191 9.16409C145.508 9.8468 145.167 10.7308 145.167 11.8162C145.167 12.9015 145.508 13.7943 146.191 14.4945Z" fill="#2E3138"/>
<path d="M149.42 4.88401C151.188 4.88401 152.693 5.55797 153.936 6.90589C155.196 8.25381 155.826 9.89056 155.826 11.8162C155.826 13.7768 155.196 15.4223 153.936 16.7527C152.711 18.0831 151.205 18.7483 149.42 18.7483C147.582 18.7483 146.165 18.1094 145.167 16.8315V23.6323H141.78V5.25163H145.167V6.80086C146.165 5.52296 147.582 4.88401 149.42 4.88401ZM146.191 14.4945C146.874 15.1772 147.74 15.5186 148.79 15.5186C149.84 15.5186 150.707 15.1772 151.389 14.4945C152.089 13.7943 152.439 12.9015 152.439 11.8162C152.439 10.7308 152.089 9.8468 151.389 9.16409C150.707 8.46387 149.84 8.11376 148.79 8.11376C147.74 8.11376 146.874 8.46387 146.191 9.16409C145.508 9.8468 145.167 10.7308 145.167 11.8162C145.167 12.9015 145.508 13.7943 146.191 14.4945Z" fill="url(#paint7_linear_132_609)"/>
<path d="M166.038 4.88401C167.491 4.88401 168.672 5.36541 169.582 6.32821C170.527 7.30851 171 8.63892 171 10.3194V18.3807H167.613V10.7396C167.613 9.88181 167.377 9.21661 166.904 8.74396C166.449 8.27131 165.819 8.03499 165.014 8.03499C164.122 8.03499 163.413 8.31507 162.888 8.87525C162.38 9.41792 162.126 10.2232 162.126 11.291V18.3807H158.74V0H162.126V6.72208C162.931 5.4967 164.235 4.88401 166.038 4.88401Z" fill="#2E3138"/>
<path d="M166.038 4.88401C167.491 4.88401 168.672 5.36541 169.582 6.32821C170.527 7.30851 171 8.63892 171 10.3194V18.3807H167.613V10.7396C167.613 9.88181 167.377 9.21661 166.904 8.74396C166.449 8.27131 165.819 8.03499 165.014 8.03499C164.122 8.03499 163.413 8.31507 162.888 8.87525C162.38 9.41792 162.126 10.2232 162.126 11.291V18.3807H158.74V0H162.126V6.72208C162.931 5.4967 164.235 4.88401 166.038 4.88401Z" fill="url(#paint8_linear_132_609)"/>
<defs>
<linearGradient id="paint0_linear_132_609" x1="32.388" y1="-3.63237" x2="172.436" y2="27.0011" gradientUnits="userSpaceOnUse">
<stop stop-color="#FFC000"/>
<stop offset="1" stop-color="#F06966"/>
</linearGradient>
<linearGradient id="paint1_linear_132_609" x1="32.388" y1="-3.63237" x2="172.436" y2="27.0011" gradientUnits="userSpaceOnUse">
<stop stop-color="#FFC000"/>
<stop offset="1" stop-color="#F06966"/>
</linearGradient>
<linearGradient id="paint2_linear_132_609" x1="32.388" y1="-3.63237" x2="172.436" y2="27.0011" gradientUnits="userSpaceOnUse">
<stop stop-color="#FFC000"/>
<stop offset="1" stop-color="#F06966"/>
</linearGradient>
<linearGradient id="paint3_linear_132_609" x1="32.388" y1="-3.63237" x2="172.436" y2="27.0011" gradientUnits="userSpaceOnUse">
<stop stop-color="#FFC000"/>
<stop offset="1" stop-color="#F06966"/>
</linearGradient>
<linearGradient id="paint4_linear_132_609" x1="32.388" y1="-3.63237" x2="172.436" y2="27.0011" gradientUnits="userSpaceOnUse">
<stop stop-color="#FFC000"/>
<stop offset="1" stop-color="#F06966"/>
</linearGradient>
<linearGradient id="paint5_linear_132_609" x1="32.388" y1="-3.63237" x2="172.436" y2="27.0011" gradientUnits="userSpaceOnUse">
<stop stop-color="#FFC000"/>
<stop offset="1" stop-color="#F06966"/>
</linearGradient>
<linearGradient id="paint6_linear_132_609" x1="32.388" y1="-3.63237" x2="172.436" y2="27.0011" gradientUnits="userSpaceOnUse">
<stop stop-color="#FFC000"/>
<stop offset="1" stop-color="#F06966"/>
</linearGradient>
<linearGradient id="paint7_linear_132_609" x1="32.388" y1="-3.63237" x2="172.436" y2="27.0011" gradientUnits="userSpaceOnUse">
<stop stop-color="#FFC000"/>
<stop offset="1" stop-color="#F06966"/>
</linearGradient>
<linearGradient id="paint8_linear_132_609" x1="32.388" y1="-3.63237" x2="172.436" y2="27.0011" gradientUnits="userSpaceOnUse">
<stop stop-color="#FFC000"/>
<stop offset="1" stop-color="#F06966"/>
</linearGradient>
</defs>
</svg>
